<svg width="56.6934" height="56.6934" xmlns="http://www.w3.org/2000/svg">

 <g>
  <title>background</title>
  <rect fill="none" id="canvas_background" height="402" width="582" y="-1" x="-1"/>
 </g>
 <g>
  <title>Layer 1</title>
  <g id="svg_1">
   <path fill="#ffffff" id="svg_2" d="m39.332,18.0622l-26.6576,-14.2717c-1.3853,-0.7416 -2.8874,-0.7795 -4.1875,-0.3055l22.7111,22.7111l8.134,-8.1339z"/>
   <path fill="#ffffff" id="svg_3" d="m49.2731,23.3844l-7.6787,-4.1109l-8.6595,8.6594l8.6595,8.6595l7.6786,-4.111c3.6324,-1.9446 3.6324,-7.1524 0.0001,-9.097z"/>
   <path fill="#ffffff" id="svg_4" d="m6.4077,4.8794c-0.8145,0.8952 -1.3279,2.0903 -1.3279,3.4596l0,39.1878c0,1.3693 0.5134,2.5645 1.3278,3.4597l23.0536,-23.0536l-23.0535,-23.0535z"/>
   <path fill="#ffffff" id="svg_5" d="m8.4869,52.3809c1.3,0.4739 2.8022,0.4362 4.1875,-0.3055l26.6576,-14.2717l-8.1339,-8.1339l-22.7112,22.7111z"/>
  </g>
 </g>
</svg>